# Blender 3.5.1
# www.blender.org
mtllib board.mtl
o Cube
v 1.000000 0.100000 -1.000000
v 1.000000 -0.100000 -1.000000
v 1.000000 0.100000 1.000000
v 1.000000 -0.100000 1.000000
v -1.000000 0.100000 -1.000000
v -1.000000 -0.100000 -1.000000
v -1.000000 0.100000 1.000000
v -1.000000 -0.100000 1.000000
v 0.900000 -0.100000 -1.000000
v 0.900000 0.100000 1.000000
v 0.900000 -0.100000 1.000000
v 0.900000 0.100000 -1.000000
v -0.900000 -0.100000 -1.000000
v -0.900000 0.100000 1.000000
v -0.900000 -0.100000 1.000000
v -0.900000 0.100000 -1.000000
v -1.000000 -0.100000 0.900000
v 1.000000 0.100000 0.900000
v -1.000000 0.100000 0.900000
v 1.000000 -0.100000 0.900000
v 0.900000 -0.100000 0.900000
v 0.899544 0.098365 0.900000
v -0.900000 -0.100000 0.900000
v -0.900456 0.098365 0.900000
v -1.000000 0.100000 -0.900000
v 1.000000 -0.100000 -0.900000
v -1.000000 -0.100000 -0.900000
v 1.000000 0.100000 -0.900000
v 0.900000 -0.100000 -0.900000
v 0.899544 0.098365 -0.900000
v -0.900000 -0.100000 -0.900000
v -0.900456 0.098365 -0.900000
v 0.899544 0.098365 0.900000
v -0.900456 0.098365 0.900000
v 0.899544 0.098365 -0.900000
v -0.900456 0.098365 -0.900000
v 0.899544 0.098365 0.900000
v -0.900456 0.098365 0.900000
v 0.899544 0.098365 -0.900000
v -0.900456 0.098365 -0.900000
v 0.899544 0.098365 0.900000
v -0.900456 0.098365 0.900000
v 0.899544 0.098365 -0.900000
v -0.900456 0.098365 -0.900000
v 0.899544 -0.001635 0.900000
v -0.900456 -0.001635 0.900000
v 0.899544 -0.001635 -0.900000
v -0.900456 -0.001635 -0.900000
vn 0.0082 0.9999 -0.0082
vn -0.0000 -0.0000 1.0000
vn -1.0000 -0.0000 -0.0000
vn -0.0000 -1.0000 -0.0000
vn 1.0000 -0.0000 -0.0000
vn -0.0000 -0.0000 -1.0000
vn -0.0082 0.9999 -0.0082
vn -0.0000 0.9999 -0.0163
vn -0.0163 0.9999 -0.0000
vn 0.0164 0.9999 -0.0000
vn 0.0082 0.9999 0.0082
vn -0.0082 0.9999 0.0082
vn -0.0000 0.9999 0.0163
vn -0.0000 1.0000 -0.0000
vt 1.000000 1.000000
vt 1.000000 0.000000
vt 0.000000 0.000000
vt 0.000000 1.000000
vt 1.000000 0.000000
vt 0.000000 0.000000
vt 1.000000 1.000000
vt 1.000000 0.000000
vt 0.000000 1.000000
vt 1.000000 1.000000
vt 0.000000 1.000000
vt 0.000000 0.000000
vt 1.000000 1.000000
vt 1.000000 0.000000
vt 0.000000 1.000000
vt 0.000000 0.000000
vt 1.000000 1.000000
vt 1.000000 0.000000
vt 0.000000 1.000000
vt 0.000000 0.000000
vt 0.000000 1.000000
vt 0.000000 0.000000
vt 1.000000 0.000000
vt 1.000000 1.000000
vt 1.000000 0.000000
vt 0.000000 1.000000
vt 1.000000 1.000000
vt 0.000000 1.000000
vt 0.000000 0.000000
vt 1.000000 1.000000
vt 1.000000 0.000000
vt 0.000000 0.000000
vt 0.000000 1.000000
vt 0.000000 0.000000
vt 1.000000 0.000000
vt 0.000000 1.000000
vt 1.000000 0.000000
vt 1.000000 1.000000
vt 0.000000 0.000000
vt 1.000000 1.000000
vt 0.000000 1.000000
vt 1.000000 1.000000
vt 0.000000 0.000000
vt 1.000000 0.000000
vt 0.000000 1.000000
vt 0.000000 0.000000
vt 1.000000 0.000000
vt 0.000000 0.000000
vt 0.000000 1.000000
vt 1.000000 1.000000
vt 1.000000 1.000000
vt 1.000000 0.000000
vt 1.000000 0.000000
vt 0.000000 0.000000
vt 0.000000 1.000000
vt 1.000000 1.000000
vt 0.000000 0.000000
vt 1.000000 0.000000
vt 1.000000 1.000000
vt 0.000000 1.000000
vt 1.000000 1.000000
vt 0.000000 0.000000
vt 1.000000 0.000000
vt 0.000000 0.000000
vt 1.000000 0.000000
vt 1.000000 1.000000
vt 0.000000 1.000000
vt 0.000000 1.000000
vt 1.000000 0.000000
vt 0.000000 0.000000
vt 1.000000 0.000000
vt 1.000000 1.000000
vt 0.000000 0.000000
vt 1.000000 0.000000
vt 1.000000 1.000000
vt 0.000000 1.000000
vt 0.000000 0.000000
vt 0.000000 1.000000
vt 0.000000 0.000000
vt 1.000000 0.000000
vt 1.000000 1.000000
vt 0.000000 1.000000
vt 1.000000 0.000000
vt 0.000000 0.000000
vt 0.000000 1.000000
vt 1.000000 1.000000
vt 1.000000 1.000000
vt 0.000000 1.000000
vt 1.000000 0.000000
vt 0.000000 0.000000
vt 1.000000 0.000000
vt 0.000000 0.000000
vt 0.000000 1.000000
vt 1.000000 1.000000
vt 0.000000 1.000000
vt 1.000000 1.000000
vt 0.000000 0.000000
vt 1.000000 0.000000
vt 0.000000 1.000000
vt 1.000000 1.000000
vt 1.000000 0.000000
vt 0.000000 0.000000
vt 1.000000 1.000000
vt 1.000000 0.000000
vt 0.000000 1.000000
vt 0.000000 0.000000
vt 1.000000 1.000000
vt 0.000000 1.000000
vt 1.000000 0.000000
vt 0.000000 0.000000
vt 0.000000 1.000000
vt 0.000000 0.000000
vt 1.000000 1.000000
vt 1.000000 0.000000
vt 1.000000 0.000000
vt 1.000000 1.000000
vt 0.000000 1.000000
vt 0.000000 0.000000
vt 1.000000 1.000000
vt 0.000000 0.000000
vt 0.000000 1.000000
vt 1.000000 0.000000
vt 1.000000 1.000000
vt 0.000000 1.000000
vt 1.000000 0.000000
vt 0.000000 0.000000
vt 0.000000 1.000000
vt 1.000000 1.000000
vt 1.000000 0.000000
vt 0.000000 0.000000
vt 1.000000 1.000000
vt 0.000000 1.000000
vt 1.000000 0.000000
vt 0.000000 0.000000
vt 0.000000 1.000000
vt 1.000000 1.000000
vt 1.000000 0.000000
vt 0.000000 0.000000
vt 0.000000 0.000000
vt 1.000000 1.000000
vt 0.000000 1.000000
vt 1.000000 0.000000
vt 1.000000 0.000000
vt 1.000000 1.000000
vt 0.000000 1.000000
vt 0.000000 0.000000
vt -0.023438 0.007812
vt 1.000000 1.000000
vt 0.000000 1.000000
vt 1.000000 0.000000
vt 1.000000 1.000000
vt 0.000000 1.000000
vt 0.000000 1.000000
vt 1.000000 1.000000
vt 1.000000 1.000000
vt 0.000000 1.000000
s 0
usemtl Material
f 24/70/1 19/52/1 7/17/1 14/36/1
f 15/39/2 14/37/2 7/17/2 8/19/2
f 27/77/3 25/71/3 5/13/3 6/15/3
f 21/57/4 20/53/4 4/10/4 11/28/4
f 20/54/5 18/47/5 3/7/5 4/11/5
f 9/22/6 12/31/6 1/1/6 2/4/6
f 13/34/6 16/44/6 12/30/6 9/21/6
f 23/64/4 21/58/4 11/27/4 15/41/4
f 4/12/2 3/8/2 10/24/2 11/28/2
f 18/48/7 22/63/7 10/24/7 3/9/7
f 17/46/4 23/65/4 15/40/4 8/19/4
f 6/16/6 5/14/6 16/42/6 13/33/6
f 11/29/2 10/25/2 14/38/2 15/41/2
f 22/62/8 24/69/8 14/38/8 10/26/8
f 27/77/4 31/91/4 23/66/4 17/45/4
f 28/79/9 30/89/9 22/61/9 18/49/9
f 31/92/4 29/83/4 21/59/4 23/67/4
f 26/73/5 28/80/5 18/50/5 20/55/5
f 29/84/4 26/74/4 20/56/4 21/60/4
f 8/20/3 7/18/3 19/51/3 17/45/3
f 32/97/10 25/71/10 19/51/10 24/68/10
f 16/43/11 5/14/11 25/72/11 32/95/11
f 9/22/4 2/5/4 26/75/4 29/85/4
f 2/6/5 1/2/5 28/81/5 26/76/5
f 13/34/4 9/23/4 29/86/4 31/93/4
f 1/3/12 12/31/12 30/87/12 28/82/12
f 6/16/4 13/35/4 31/94/4 27/78/4
f 12/32/13 16/44/13 32/96/13 30/88/13
f 17/46/3 19/52/3 25/72/3 27/78/3
f 32/97/14 24/69/14 34/103/14 36/111/14
f 36/112/14 34/104/14 38/119/14 40/127/14
f 22/62/14 30/89/14 35/107/14 33/99/14
f 24/70/14 22/63/14 33/100/14 34/105/14
f 30/90/14 32/98/14 36/113/14 35/108/14
f 38/120/14 37/115/14 41/131/14 42/135/14
f 34/106/14 33/101/14 37/116/14 38/121/14
f 33/102/14 35/109/14 39/123/14 37/117/14
f 35/110/14 36/114/14 40/128/14 39/124/14
f 43/139/2 44/143/2 48/155/2 47/153/2
f 37/118/14 39/125/14 43/140/14 41/132/14
f 39/126/14 40/129/14 44/144/14 43/141/14
f 40/130/14 38/122/14 42/136/14 44/145/14
f 45/147/14 47/153/14 48/155/14 46/150/14
f 44/146/5 42/137/5 46/151/5 48/156/5
f 42/138/6 41/133/6 45/148/6 46/152/6
f 41/134/3 43/142/3 47/154/3 45/149/3
