# Blender 3.5.1
# www.blender.org
mtllib chessboard.mtl
o Cube
v 1.000000 0.100000 -1.000000
v 1.000000 -0.100000 -1.000000
v 1.000000 0.100000 1.000000
v 1.000000 -0.100000 1.000000
v -1.000000 0.100000 -1.000000
v -1.000000 -0.100000 -1.000000
v -1.000000 0.100000 1.000000
v -1.000000 -0.100000 1.000000
v 0.900000 -0.100000 -1.000000
v 0.900000 0.100000 1.000000
v 0.900000 -0.100000 1.000000
v 0.900000 0.100000 -1.000000
v -0.900000 -0.100000 -1.000000
v -0.900000 0.100000 1.000000
v -0.900000 -0.100000 1.000000
v -0.900000 0.100000 -1.000000
v -1.000000 -0.100000 0.900000
v 1.000000 0.100000 0.900000
v -1.000000 0.100000 0.900000
v 1.000000 -0.100000 0.900000
v 0.900000 -0.100000 0.900000
v 0.899544 -0.001635 0.900000
v -0.900000 -0.100000 0.900000
v -0.900456 -0.001635 0.900000
v -1.000000 0.100000 -0.900000
v 1.000000 -0.100000 -0.900000
v -1.000000 -0.100000 -0.900000
v 1.000000 0.100000 -0.900000
v 0.900000 -0.100000 -0.900000
v 0.899544 -0.001635 -0.900000
v -0.900000 -0.100000 -0.900000
v -0.900456 -0.001635 -0.900000
vn 0.4133 0.8114 -0.4133
vn -0.0000 -0.0000 1.0000
vn -1.0000 -0.0000 -0.0000
vn -0.0000 -1.0000 -0.0000
vn 1.0000 -0.0000 -0.0000
vn -0.0000 -0.0000 -1.0000
vn -0.4120 0.8127 -0.4120
vn -0.0000 0.7013 -0.7128
vn -0.7112 0.7030 -0.0000
vn 0.7144 0.6997 -0.0000
vn 0.4133 0.8114 0.4133
vn -0.4120 0.8127 0.4120
vn -0.0000 0.7013 0.7128
vt 0.625000 0.500000
vt 0.375000 0.500000
vt 0.625000 0.750000
vt 0.375000 0.750000
vt 0.625000 0.250000
vt 0.875000 0.500000
vt 0.375000 0.250000
vt 0.125000 0.500000
vt 0.875000 0.750000
vt 0.625000 1.000000
vt 0.625000 0.000000
vt 0.375000 1.000000
vt 0.125000 0.750000
vt 0.375000 0.000000
vt 0.375000 0.375000
vt 0.250000 0.500000
vt 0.625000 0.875000
vt 0.750000 0.750000
vt 0.250000 0.750000
vt 0.375000 0.875000
vt 0.625000 0.375000
vt 0.750000 0.500000
vt 0.375000 0.312500
vt 0.187500 0.500000
vt 0.625000 0.937500
vt 0.812500 0.750000
vt 0.187500 0.750000
vt 0.375000 0.937500
vt 0.625000 0.312500
vt 0.812500 0.500000
vt 0.125000 0.625000
vt 0.375000 0.125000
vt 0.625000 0.625000
vt 0.875000 0.625000
vt 0.625000 0.125000
vt 0.375000 0.625000
vt 0.250000 0.625000
vt 0.750000 0.625000
vt 0.187500 0.625000
vt 0.812500 0.625000
vt 0.875000 0.562500
vt 0.625000 0.187500
vt 0.375000 0.562500
vt 0.125000 0.562500
vt 0.375000 0.187500
vt 0.625000 0.562500
vt 0.250000 0.562500
vt 0.750000 0.562500
vt 0.187500 0.562500
vt 0.812500 0.562500
s 0
usemtl Material
f 24/40/1 19/34/1 7/9/1 14/26/1
f 15/28/2 14/25/2 7/10/2 8/12/2
f 27/45/3 25/42/3 5/5/3 6/7/3
f 21/37/4 20/36/4 4/4/4 11/19/4
f 20/36/5 18/33/5 3/3/5 4/4/5
f 9/15/6 12/21/6 1/1/6 2/2/6
f 13/23/6 16/29/6 12/21/6 9/15/6
f 23/39/4 21/37/4 11/19/4 15/27/4
f 4/4/2 3/3/2 10/17/2 11/20/2
f 18/33/7 22/38/7 10/18/7 3/3/7
f 17/31/4 23/39/4 15/27/4 8/13/4
f 6/7/6 5/5/6 16/29/6 13/23/6
f 11/20/2 10/17/2 14/25/2 15/28/2
f 22/38/8 24/40/8 14/26/8 10/18/8
f 27/44/4 31/49/4 23/39/4 17/31/4
f 28/46/9 30/48/9 22/38/9 18/33/9
f 31/49/4 29/47/4 21/37/4 23/39/4
f 26/43/5 28/46/5 18/33/5 20/36/5
f 29/47/4 26/43/4 20/36/4 21/37/4
f 8/14/3 7/11/3 19/35/3 17/32/3
f 32/50/10 25/41/10 19/34/10 24/40/10
f 16/30/11 5/6/11 25/41/11 32/50/11
f 9/16/4 2/2/4 26/43/4 29/47/4
f 2/2/5 1/1/5 28/46/5 26/43/5
f 13/24/4 9/16/4 29/47/4 31/49/4
f 1/1/12 12/22/12 30/48/12 28/46/12
f 6/8/4 13/24/4 31/49/4 27/44/4
f 12/22/13 16/30/13 32/50/13 30/48/13
f 17/32/3 19/35/3 25/42/3 27/45/3
o Plane
v -0.899993 -0.001583 0.900000
v 0.900007 -0.001583 0.900000
v -0.899993 -0.001583 -0.900000
v 0.900007 -0.001583 -0.900000
vn -0.0000 1.0000 -0.0000
vt 2.277480 0.007471
vt 2.277481 3.772529
vt -1.277480 0.007471
vt -1.270254 3.764876
s 0
usemtl Material.003
f 33/51/14 34/52/14 36/54/14 35/53/14
